<?xml version="1.0" encoding="utf-8"?>
<!-- Generator: Adobe Illustrator 18.1.1, SVG Export Plug-In . SVG Version: 6.00 Build 0)  -->
<svg version="1.1" id="Layer_1" xmlns="http://www.w3.org/2000/svg" xmlns:xlink="http://www.w3.org/1999/xlink" x="0px" y="0px"
	 width="100px" height="100px" viewBox="0 0 100 100" enable-background="new 0 0 100 100" xml:space="preserve">
<path fill="#020202" d="M50,83.8c-1.1-4.3-2.8-8.3-4.8-12c-2-3.7-6.1-9.5-12-17.3c-4.3-5.7-7.1-9.4-8-10.9c-1.7-2.5-2.9-4.8-3.5-6.9
	c-0.8-2.1-1.1-4.3-1.1-6.4c0-4,1.4-7.4,4-10c2.6-2.8,6-4,9.8-4c4,0,7.4,1.4,10.3,4.1c2.1,2.1,4,5.2,5.4,9.4c1.2-4,2.9-7.2,5.1-9.2
	c2.9-2.9,6.4-4.3,10.4-4.3c3.8,0,7.2,1.4,9.8,4c2.8,2.6,4,5.8,4,9.5c0,3.2-0.8,6.6-2.3,10.1c-1.5,3.5-4.6,8.1-9.2,13.8
	C62.1,61.1,57.8,67.1,55.1,72C52.8,75.8,51.1,79.5,50,83.8z"/>
</svg>
