<?xml version="1.0" encoding="utf-8"?>
<!-- Generator: Adobe Illustrator 18.1.1, SVG Export Plug-In . SVG Version: 6.00 Build 0)  -->
<svg version="1.1" id="Layer_1" xmlns="http://www.w3.org/2000/svg" xmlns:xlink="http://www.w3.org/1999/xlink" x="0px" y="0px"
	 width="100px" height="100px" viewBox="0 0 100 100" enable-background="new 0 0 100 100" xml:space="preserve">
<path fill="#020202" d="M72.8,83.2H26.9l0.5-1.8c6-1.2,9.8-2.5,11.8-3.7c2.9-1.8,5.4-4.6,7.2-8.1s2.8-7.4,2.8-11.4
	c0-0.6,0-1.4,0-2.5c-2.2,4.5-4.9,7.7-8,9.8c-3.2,2-6.3,3.1-9.7,3.1c-4.2,0-7.7-1.4-10.6-4.3c-2.9-2.9-4.3-6.5-4.3-10.8
	c0-4.2,1.4-7.7,4-10.6s5.7-4.3,9.1-4.3c2.2,0,5.1,0.9,8.8,2.8c-1.5-2.5-2.5-4.5-2.9-5.7c-0.5-1.2-0.6-2.6-0.6-4.1
	c0-4.2,1.4-7.5,4.3-10.5c2.9-2.9,6.5-4.3,10.6-4.3c4.3,0,7.8,1.4,10.8,4.3C63.6,24,65,27.4,65,31.2c0,3.2-1.2,6.6-3.7,10.1
	c3.1-1.4,4.9-2.3,5.5-2.5c0.9-0.3,2-0.5,3.2-0.5c3.5,0,6.8,1.4,9.4,4.3c2.6,2.8,4,6.3,4,10.5c0,4.3-1.4,8-4.3,10.9
	c-2.9,2.9-6.5,4.5-10.5,4.5c-2.3,0-4.6-0.6-7.1-1.7s-4.5-2.6-6.3-4.5c-1.2-1.4-2.8-3.5-4.8-6.8c0.2,5.7,1.1,10.3,2.6,13.5
	c1.5,3.4,4,6.1,7.4,8.3c2.3,1.5,6.3,2.8,12,3.8L72.8,83.2z"/>
</svg>
