<?xml version="1.0" encoding="utf-8"?>
<!-- Generator: Adobe Illustrator 18.1.1, SVG Export Plug-In . SVG Version: 6.00 Build 0)  -->
<svg version="1.1" id="Layer_1" xmlns="http://www.w3.org/2000/svg" xmlns:xlink="http://www.w3.org/1999/xlink" x="0px" y="0px"
	 width="100px" height="100px" viewBox="0 0 100 100" enable-background="new 0 0 100 100" xml:space="preserve">
<path fill="#020202" d="M56.9,58.2h-0.6c-2.5,3.7-4.7,6.3-6.9,8c-2.2,1.7-4.4,2.5-6.7,2.5c-1.9,0-3.5-0.5-4.8-1.5
	c-1.4-1-2.3-2.3-3.1-4.2c-0.7-1.9-1-3.9-1-6.3c0-2.3,0.2-4.7,0.9-7.2c0.6-2.3,1.4-4.7,2.5-6.9s2.5-4.1,3.9-5.7
	c1.6-1.6,3.3-3,5.4-3.9c2.1-0.9,4.3-1.4,6.8-1.4c1.7,0,3.2,0.2,4.7,0.6c1.5,0.4,2.7,1,3.9,1.7l3.3-2.3l2.8,0.6l-4.8,21.7
	c-0.2,1.2-0.5,2.3-0.6,3.2s-0.2,1.6-0.2,2.5c0,3.3,1.4,4.9,4.2,4.9c2.1,0,3.8-0.9,5.4-2.5s2.8-3.9,3.7-6.9c0.9-3,1.4-6.2,1.4-9.6
	c0-5.4-0.9-10-2.6-13.7c-1.7-3.7-4.3-6.5-7.8-8.4s-7.6-2.8-12.6-2.8c-6,0-11.5,1.4-16,4.1S30,31.5,27.6,36.5s-3.7,10.9-3.7,17.3
	c0,5.5,1,10.4,2.8,14.1c2,3.8,4.7,6.7,8.4,8.5c3.7,1.9,8,2.8,13.2,2.8c2.5,0,4.8-0.1,6.8-0.5s4.3-0.9,6.7-1.6l1,3.9
	c-1.9,0.7-4.1,1.2-6.7,1.7c-2.6,0.5-5.3,0.6-8,0.6c-7.3,0-13.2-1.2-17.9-3.6c-4.7-2.3-8.1-5.8-10.4-10.2c-2.2-4.4-3.3-9.8-3.3-16.2
	c0-5.1,0.9-9.7,2.6-14.2c1.7-4.4,4.3-8.4,7.6-11.7c3.3-3.5,7.3-6,12-7.9c4.6-1.9,9.6-2.7,15-2.7c5.3,0,9.9,0.7,13.7,2.2
	c3.9,1.5,7,3.5,9.4,6c2.3,2.6,4.1,5.4,5.2,8.6c1.1,3.2,1.6,6.8,1.6,10.6c0,4.8-0.7,9.1-2.2,12.8s-3.5,6.7-6.2,8.6
	c-2.7,2-5.7,3.1-9.2,3.1c-1.2,0-2.3-0.1-3.5-0.5c-1.1-0.4-2.1-0.7-2.8-1.5c-0.7-0.7-1.5-1.5-2-2.6S57,61.8,57,60.2
	C56.8,59.6,56.8,58.9,56.9,58.2z M58.4,45.3c0.2-1,0.4-2,0.5-2.7c0.1-0.8,0.1-1.5,0.1-2.2c0-1.9-0.4-3.2-1.1-3.9
	c-0.7-0.9-2.1-1.2-3.8-1.2c-1,0-2,0.1-2.8,0.5c-0.9,0.4-1.9,0.9-2.8,1.6c-1,0.7-1.9,1.7-2.7,3c-0.9,1.2-1.6,2.7-2.3,4.6
	s-1.2,3.7-1.6,5.8c-0.4,2.1-0.6,4.1-0.6,5.9c0,2.5,0.4,4.3,1,5.6c0.6,1.2,1.7,1.9,3.3,1.9c1.2,0,2.5-0.5,3.6-1.4
	c1.2-0.9,2.5-2.2,3.8-3.9c1.4-1.7,2.5-3.5,3.3-5.3c0.9-1.9,1.5-3.9,2-6.4L58.4,45.3z"/>
</svg>
