<?xml version="1.0" encoding="utf-8"?>
<!-- Generator: Adobe Illustrator 18.1.1, SVG Export Plug-In . SVG Version: 6.00 Build 0)  -->
<svg version="1.1" id="Layer_1" xmlns="http://www.w3.org/2000/svg" xmlns:xlink="http://www.w3.org/1999/xlink" x="0px" y="0px"
	 width="100px" height="100px" viewBox="0 0 100 100" enable-background="new 0 0 100 100" xml:space="preserve">
<path fill="#020202" d="M50,16.3c5.7,0,11.2,1.5,16.6,4.4s9.6,7.1,12.7,12.5c3,5.4,4.5,11,4.5,16.9s-1.5,11.5-4.5,16.7
	c-3,5.3-7.2,9.5-12.5,12.5c-5.3,3-11,4.5-16.7,4.5c-5.9,0-11.5-1.5-16.9-4.5s-9.5-7.1-12.5-12.5s-4.5-11-4.5-16.7
	c0-5.9,1.5-11.5,4.5-16.9s7.2-9.6,12.7-12.5C38.7,17.8,44.2,16.3,50,16.3z M50,21.3c-4.8,0-9.5,1.2-14.2,3.8s-8.1,6-10.9,10.7
	c-2.6,4.7-3.9,9.5-3.9,14.5s1.2,9.8,3.8,14.3s6.2,8.1,10.7,10.7s9.3,3.8,14.3,3.8s9.8-1.2,14.3-3.8c4.5-2.6,8.1-6,10.7-10.7
	c2.6-4.5,3.8-9.3,3.8-14.3s-1.4-9.8-3.9-14.5c-2.6-4.7-6.2-8.2-10.9-10.7C59.2,22.5,54.8,21.3,50,21.3z M37,38.8
	c1.2,0,2.3,0.5,3,1.2c0.9,0.9,1.2,1.8,1.2,3s-0.5,2.1-1.2,3c-0.9,0.9-1.8,1.2-3,1.2s-2.1-0.5-3-1.2c-0.9-0.8-1.2-1.8-1.2-3
	s0.5-2.3,1.2-3C34.9,39.2,35.8,38.8,37,38.8z M34.5,61l3.3-2c2.9,5.1,6.9,7.7,12.4,7.7c5.4,0,9.5-2.6,12.2-7.7l3.3,2
	c-1.8,3.3-3.9,5.9-6.5,7.7c-2.6,1.8-5.6,2.7-9,2.7c-3.5,0-6.5-0.9-9-2.7C38.4,67,36.3,64.3,34.5,61z M62.9,38.8c1.2,0,2.3,0.5,3,1.2
	c0.9,0.9,1.2,1.8,1.2,3s-0.5,2.1-1.2,3c-0.8,0.9-1.8,1.2-3,1.2s-2.1-0.5-3-1.2c-0.9-0.8-1.2-1.8-1.2-3s0.5-2.3,1.2-3
	C60.7,39.2,61.7,38.8,62.9,38.8z"/>
</svg>
