<?xml version="1.0" encoding="utf-8"?>
<!-- Generator: Adobe Illustrator 18.1.1, SVG Export Plug-In . SVG Version: 6.00 Build 0)  -->
<svg version="1.1" id="Layer_1" xmlns="http://www.w3.org/2000/svg" xmlns:xlink="http://www.w3.org/1999/xlink" x="0px" y="0px"
	 width="100px" height="100px" viewBox="0 0 100 100" enable-background="new 0 0 100 100" xml:space="preserve">
<path fill="#020202" d="M47.6,19.1c0.5-0.9,1.4-1.5,2.4-1.5s1.9,0.6,2.4,1.5l8.4,17.1c0.4,0.8,1.1,1.3,2,1.4l18.9,2.7
	c1,0.1,1.8,0.8,2.1,1.8c0.3,1,0.1,2-0.7,2.7L69.5,58.2c-0.6,0.6-0.9,1.5-0.8,2.3l3.2,18.8c0.2,1-0.2,2-1,2.6
	c-0.8,0.6-1.9,0.7-2.8,0.2l-16.9-8.9c-0.8-0.4-1.7-0.4-2.4,0l-16.9,8.9c-0.9,0.5-2,0.4-2.8-0.2s-1.2-1.6-1-2.6l3.2-18.8
	c0.1-0.9-0.1-1.7-0.8-2.3L16.9,44.9c-0.7-0.7-1-1.7-0.7-2.7c0.3-0.9,1.1-1.6,2.1-1.8l18.9-2.7c0.9-0.1,1.6-0.7,2-1.4L47.6,19.1z"/>
</svg>
