<?xml version="1.0" encoding="utf-8"?>
<!-- Generator: Adobe Illustrator 16.0.0, SVG Export Plug-In . SVG Version: 6.00 Build 0)  -->
<!DOCTYPE svg PUBLIC "-//W3C//DTD SVG 1.1//EN" "http://www.w3.org/Graphics/SVG/1.1/DTD/svg11.dtd">
<svg version="1.1" id="Layer_1" xmlns="http://www.w3.org/2000/svg" xmlns:xlink="http://www.w3.org/1999/xlink" x="0px" y="0px"
	 width="70px" height="26px" viewBox="30 10.5 70 26" enable-background="new 30 10.5 70 26" xml:space="preserve">
<g>
	<g>
		<path fill="#D11242" d="M65,10.781c-3.559,0-6.443,2.884-6.443,6.442c0,3.558,2.884,6.443,6.443,6.443
			c3.558,0,6.442-2.885,6.442-6.443C71.442,13.665,68.558,10.781,65,10.781z M67.858,19.848l-1.317,0.978l-1.616-2.25l-1.528,2.25
			l-1.335-0.977l1.619-2.139l-2.525-0.852l0.525-1.533l2.472,0.961v-2.67h1.708v2.668l2.478-0.961l0.508,1.534l-2.59,0.852
			L67.858,19.848z"/>
	</g>
	<g>
		<g>
			<path fill="#455560" d="M30,26.622h4.922c1.206,0,2.057,0.301,2.618,0.862c0.384,0.384,0.617,0.892,0.617,1.551v0.027
				c0,1.11-0.631,1.769-1.48,2.139c1.165,0.384,1.906,1.042,1.906,2.345v0.027c0,1.646-1.344,2.646-3.634,2.646H30L30,26.622
				L30,26.622z M34.264,30.446c0.809,0,1.261-0.274,1.261-0.836v-0.028c0-0.52-0.411-0.822-1.206-0.822h-1.728v1.687H34.264
				L34.264,30.446z M34.648,34.08c0.81,0,1.275-0.316,1.275-0.878v-0.027c0-0.521-0.411-0.863-1.302-0.863h-2.03v1.769H34.648
				L34.648,34.08z"/>
		</g>
		<g>
			<path fill="#455560" d="M54.695,26.622h2.482l3.949,5.072v-5.072h2.632v9.598h-2.331l-4.1-5.266v5.266h-2.632L54.695,26.622
				L54.695,26.622z"/>
		</g>
		<g>
			<path fill="#455560" d="M47.863,36.204h-2.876l6.731-9.595h2.345v9.595h-2.374V34.78h-2.862L47.863,36.204z M51.689,32.795
				v-2.259l-1.524,2.259H51.689L51.689,32.795z"/>
		</g>
		<g>
			<path fill="#D11242" d="M85.174,26.604h2.374v6.086l4.258-6.086h2.85l-6.705,9.599h-2.778v-9.599H85.174z"/>
		</g>
		<g>
			<g>
				<path fill="#455560" d="M64.395,26.622h3.702c3.428,0,5.415,1.975,5.415,4.742v0.028c0,2.77-2.015,4.826-5.471,4.826h-3.646
					V26.622z M68.138,33.86c1.591,0,2.646-0.877,2.646-2.428v-0.026c0-1.536-1.056-2.427-2.646-2.427h-1.082v4.881H68.138
					L68.138,33.86z"/>
			</g>
		</g>
		<g>
			<path fill="#D11242" d="M73.926,26.622h2.659v7.266h4.648v2.331h-7.308V26.622z"/>
		</g>
		<g>
			<path fill="#D11242" d="M81.865,26.622h2.674v9.598h-2.674V26.622z"/>
		</g>
		<g>
			<path fill="#455560" d="M41.604,33.312h1.166l1.688,2.538l1.548-2.215l-0.521-0.762c1.192-0.507,1.975-1.48,1.975-2.947v-0.027
				c0-0.946-0.289-1.686-0.851-2.235c-0.645-0.659-1.66-1.042-3.126-1.042h-4.538v9.597h2.659V33.312L41.604,33.312z M41.604,28.924
				h1.741c0.892,0,1.44,0.384,1.44,1.139v0.027c0,0.699-0.521,1.138-1.426,1.138h-1.755L41.604,28.924L41.604,28.924z"/>
		</g>
		<g>
			<polygon fill="#D11242" points="94.846,32.434 99.453,32.434 99.453,30.337 94.846,30.337 94.846,28.884 99.931,28.884 
				99.931,26.622 95.421,26.622 92.214,31.212 92.214,36.219 100,36.219 100,33.957 94.846,33.957 			"/>
		</g>
	</g>
</g>
</svg>
