<?xml version="1.0" standalone="no"?>
<!DOCTYPE svg PUBLIC "-//W3C//DTD SVG 20010904//EN"
 "http://www.w3.org/TR/2001/REC-SVG-20010904/DTD/svg10.dtd">
<svg version="1.0" xmlns="http://www.w3.org/2000/svg"
 width="500.000000pt" height="500.000000pt" viewBox="0 0 500.000000 500.000000"
 preserveAspectRatio="xMidYMid meet">
<metadata>
Created by potrace 1.11, written by Peter Selinger 2001-2013
</metadata>
<g transform="translate(0.000000,500.000000) scale(0.100000,-0.100000)"
fill="#000000" stroke="none">
<path d="M0 2500 l0 -2500 2500 0 2500 0 0 2500 0 2500 -2500 0 -2500 0 0
-2500z m4260 400 l0 -50 -1695 0 -1695 0 0 -45 0 -45 188 -2 187 -3 3 -352 2
-353 -55 0 -55 0 0 300 0 300 -190 0 -190 0 0 150 0 150 1750 0 1750 0 0 -50z
m-2428 -424 c3 -263 4 -285 22 -305 19 -21 26 -21 356 -21 330 0 337 0 356 21
18 20 19 42 21 303 l3 281 50 3 50 3 0 -301 c0 -282 -1 -303 -20 -340 -36 -70
-33 -70 -462 -70 -357 0 -385 1 -414 19 -59 36 -64 62 -64 335 l0 246 -135 0
-135 0 0 -300 0 -300 -55 0 -55 0 0 355 0 355 240 0 239 0 3 -284z m1343 -16
c125 -165 231 -302 235 -305 5 -3 112 131 237 297 l229 303 82 3 82 3 0 -356
0 -355 -50 0 -50 0 0 300 c0 165 -3 300 -7 300 -5 -1 -109 -136 -232 -300
l-223 -300 -64 0 -64 0 -227 303 -228 302 -3 -302 -2 -303 -50 0 -50 0 0 355
0 355 80 0 79 0 226 -300z m1085 -55 l0 -355 -55 0 -55 0 0 348 c0 192 3 352
7 355 3 4 28 7 55 7 l48 0 0 -355z"/>
</g>
</svg>
