<?xml version="1.0" standalone="no"?>
<!DOCTYPE svg PUBLIC "-//W3C//DTD SVG 20010904//EN"
 "http://www.w3.org/TR/2001/REC-SVG-20010904/DTD/svg10.dtd">
<svg version="1.0" xmlns="http://www.w3.org/2000/svg"
 width="261.000000pt" height="261.000000pt" viewBox="0 0 261.000000 261.000000"
 preserveAspectRatio="xMidYMid meet">
<metadata>
Created by potrace 1.11, written by Peter Selinger 2001-2013
</metadata>
<g transform="translate(0.000000,261.000000) scale(0.100000,-0.100000)"
fill="#000000" stroke="none">
<path d="M321 2226 c-9 -10 -12 -96 -11 -307 0 -160 3 -296 6 -300 3 -5 178
-9 388 -9 l384 0 -1 -622 0 -621 112 -1 111 -1 0 737 0 736 -362 0 c-200 0
-373 1 -385 1 -22 1 -23 5 -23 91 l0 90 883 0 882 0 -2 102 c-1 57 -2 106 -2
111 -1 4 -444 7 -985 7 -837 0 -985 -2 -995 -14z"/>
<path d="M1529 1817 c0 -12 -1 -341 -1 -731 0 -461 4 -711 10 -715 8 -5 111
-6 194 -2 16 1 17 39 17 573 0 315 0 594 0 619 l1 46 268 0 c148 0 273 2 278
5 5 4 8 44 7 90 -1 45 -2 95 -2 110 l-1 26 -385 1 -385 0 -1 -22z"/>
</g>
</svg>
