<?xml version="1.0" standalone="no"?>
<!DOCTYPE svg PUBLIC "-//W3C//DTD SVG 20010904//EN"
 "http://www.w3.org/TR/2001/REC-SVG-20010904/DTD/svg10.dtd">
<svg version="1.0" xmlns="http://www.w3.org/2000/svg"
 width="16.000000pt" height="16.000000pt" viewBox="0 0 16.000000 16.000000"
 preserveAspectRatio="xMidYMid meet">
<metadata>
Created by potrace 1.11, written by Peter Selinger 2001-2013
</metadata>
<g transform="translate(0.000000,16.000000) scale(0.006154,-0.006154)"
fill="#000000" stroke="none">
<path d="M1248 2535 c-2 -2 -30 -6 -63 -10 -77 -8 -176 -42 -259 -89 -74 -42
-187 -147 -236 -219 -187 -280 -156 -664 73 -900 70 -72 126 -116 196 -152 33
-16 34 -16 26 1 -4 11 -9 69 -10 131 -11 439 288 791 730 858 48 7 171 8 202
1 l23 -5 -23 41 c-12 23 -58 79 -102 123 -139 142 -292 209 -500 220 -30 1
-56 1 -57 0z"/>
<path d="M1719 2036 c-2 -2 -24 -7 -48 -11 -118 -17 -281 -106 -373 -203 -53
-56 -138 -175 -138 -194 0 -5 21 -6 48 -3 228 29 443 -25 618 -156 219 -163
344 -422 338 -701 l-2 -87 27 14 c126 65 262 236 315 397 52 158 41 359 -29
523 -78 184 -284 357 -475 401 -19 4 -42 9 -50 11 -22 6 -226 14 -231 9z"/>
<path d="M370 1872 c-149 -111 -255 -277 -287 -449 -9 -50 -10 -218 -1 -268
29 -158 128 -326 253 -428 76 -63 219 -131 313 -150 95 -20 255 -14 342 11
162 48 291 137 392 272 27 36 68 106 68 116 0 3 -21 3 -47 -1 -383 -52 -755
162 -896 516 -46 115 -60 186 -60 312 -1 64 -3 117 -6 117 -3 0 -35 -22 -71
-48z"/>
<path d="M1624 1434 c15 -39 15 -228 0 -308 -62 -322 -302 -578 -619 -661 -48
-13 -108 -19 -192 -19 -68 -1 -123 -5 -123 -9 0 -21 86 -130 142 -182 102 -92
253 -165 373 -180 58 -7 189 -7 225 0 124 24 202 55 300 120 192 128 310 351
311 587 0 124 -22 224 -77 337 -38 78 -60 107 -132 180 -55 55 -110 98 -151
120 -54 28 -63 31 -57 15z"/>
</g>
</svg>
