<?xml version="1.0" encoding="utf-8"?>
<!-- Generated by IcoMoon.io -->
<!DOCTYPE svg PUBLIC "-//W3C//DTD SVG 1.1//EN" "http://www.w3.org/Graphics/SVG/1.1/DTD/svg11.dtd">
<svg version="1.1" xmlns="http://www.w3.org/2000/svg" xmlns:xlink="http://www.w3.org/1999/xlink" width="32" height="32" viewBox="0 0 32 32">
<path fill="#000000" d="M17.167 19.884c0 0 0.735 6.010 6.937 4.955 3.261-1.311 1.247-5.019 1.343-5.051s1.407-0.064 1.726-1.662c0.639-7.8-8.28-2.813-8.216-2.909 0.16-0.256 0.512-0.671 0.735-0.927s1.151-1.502 1.407-2.813c0.288-2.11 0.671-5.307-2.973-4.923-1.822 0.192-2.078 1.183-2.078 1.183s-0.128-0.959-1.726-1.343c-1.854-0.192-3.357 0.16-3.421 2.302 0.032 5.019 3.548 7.033 3.548 7.033s-2.621-1.502-4.444-1.63c-1.822-0.128-4.412-0.128-5.211 2.909-0.064 0.16 0.032 1.439 0.16 1.726 0.703 1.982 2.621 2.046 2.621 2.046s-0.639 1.534-0.32 2.621c0.224 1.087 1.694 2.398 4.060 1.822 2.046-0.128 3.676-3.485 3.676-3.485l0.639-1.758c0 2.014-0.032 5.69-0.032 5.69h1.407l0.352-0.064-0.192-5.722z"></path>
</svg>
