<?xml version="1.0" encoding="utf-8"?>
<!-- Generated by IcoMoon.io -->
<!DOCTYPE svg PUBLIC "-//W3C//DTD SVG 1.1//EN" "http://www.w3.org/Graphics/SVG/1.1/DTD/svg11.dtd">
<svg version="1.1" xmlns="http://www.w3.org/2000/svg" xmlns:xlink="http://www.w3.org/1999/xlink" width="32" height="32" viewBox="0 0 32 32">
<path fill="#000000" d="M5.5 8.8c1.4-3.1 5.9-4.2 8.6-2.1 0.7 0.5 1.3 1.3 1.8 2 0.7-0.9 1.5-1.9 2.6-2.4 2.1-1 4.9-0.7 6.6 0.9 1.2 1.1 1.8 2.7 1.8 4.3 0 2.1-0.9 4.1-1.9 6-2.3 3.9-5.7 6.9-8.8 10.1-1.3-0.7-2.2-1.8-3.2-2.8-2.9-2.9-5.8-6-7.3-9.8-0.8-2.1-1.1-4.3-0.2-6.2zM6.5 9.7c-0.6 2.4 0.3 5 1.5 7.1 2.1 3.4 5.1 6.2 7.9 9 2.8-2.7 5.7-5.4 7.8-8.8 0.9-1.5 1.8-3.2 2-5 0.2-1.5-0.3-3-1.4-4-1.2-1.2-3.2-1.4-4.8-0.9-1.8 0.7-2.5 2.6-3.5 4.1-0.9-1.4-1.6-3-3.1-3.9-2.4-1.1-5.6-0.1-6.4 2.4z"></path>
</svg>
