<?xml version="1.0" encoding="utf-8"?>
<!-- Generated by IcoMoon.io -->
<!DOCTYPE svg PUBLIC "-//W3C//DTD SVG 1.1//EN" "http://www.w3.org/Graphics/SVG/1.1/DTD/svg11.dtd">
<svg version="1.1" xmlns="http://www.w3.org/2000/svg" xmlns:xlink="http://www.w3.org/1999/xlink" width="32" height="32" viewBox="0 0 32 32">
<path fill="#000000" d="M16.016 5.179c1.822 0 3.58 0.48 5.307 1.407s3.069 2.27 4.060 3.996c0.959 1.726 1.439 3.516 1.439 5.403s-0.48 3.676-1.439 5.339c-0.959 1.694-2.302 3.037-3.996 3.996s-3.516 1.439-5.339 1.439c-1.886 0-3.676-0.48-5.403-1.439s-3.037-2.27-3.996-3.996c-0.959-1.726-1.439-3.516-1.439-5.339 0-1.886 0.48-3.676 1.439-5.403s2.302-3.069 4.060-3.996c1.694-0.927 3.453-1.407 5.307-1.407zM16.016 6.777c-1.534 0-3.037 0.384-4.539 1.215s-2.589 1.918-3.485 3.421c-0.831 1.502-1.247 3.037-1.247 4.635s0.384 3.133 1.215 4.571c0.831 1.439 1.982 2.589 3.421 3.421s2.973 1.215 4.571 1.215c1.598 0 3.133-0.384 4.571-1.215s2.589-1.918 3.421-3.421c0.831-1.439 1.215-2.973 1.215-4.571s-0.448-3.133-1.247-4.635c-0.831-1.502-1.982-2.589-3.485-3.421-1.471-0.831-2.877-1.215-4.412-1.215z"></path>
<path fill="#000000" d="M12.18 10.677c0.767 0 1.407 0.288 1.886 0.767 0.575 0.575 0.767 1.119 0.767 1.886s-0.288 1.311-0.767 1.886c-0.48 0.575-1.119 0.767-1.886 0.767s-1.311-0.288-1.886-0.767c-0.575-0.48-0.767-1.119-0.767-1.886s0.288-1.407 0.767-1.886c0.48-0.48 1.119-0.767 1.886-0.767z"></path>
<path fill="#000000" d="M19.724 10.677c0.767 0 1.407 0.288 1.886 0.767 0.575 0.575 0.767 1.119 0.767 1.886s-0.288 1.311-0.767 1.886c-0.48 0.575-1.119 0.767-1.886 0.767s-1.311-0.288-1.886-0.767c-0.575-0.48-0.767-1.119-0.767-1.886s0.288-1.407 0.767-1.886c0.48-0.48 1.151-0.767 1.886-0.767z"></path>
<path fill="#000000" d="M9.015 20.172l1.471-0.639c1.279 1.694 3.101 2.525 5.53 2.525s4.252-0.831 5.467-2.525l1.471 0.639c-0.799 1.087-1.758 1.95-2.909 2.525-1.151 0.607-2.494 0.895-4.028 0.895s-2.909-0.288-4.028-0.895c-1.215-0.543-2.174-1.375-2.973-2.525z"></path>
</svg>
